<svg width="211" height="44" viewBox="0 0 211 44" fill="none" xmlns="http://www.w3.org/2000/svg">
<path d="M89.22 23.7V29.406H89.895V31.206H89.265V30H84.765V31.206H84.135V29.406H84.648C85.062 28.92 85.269 28.17 85.269 27.156V23.7H89.22ZM85.395 29.406H88.59V24.294H85.899V27.174C85.899 28.164 85.731 28.908 85.395 29.406ZM94.4391 29.433C93.9771 29.883 93.4191 30.108 92.7651 30.108C92.0991 30.108 91.5381 29.883 91.0821 29.433C90.6261 28.977 90.3981 28.416 90.3981 27.75C90.3981 27.084 90.6261 26.526 91.0821 26.076C91.5381 25.62 92.0991 25.392 92.7651 25.392C93.4251 25.392 93.9831 25.62 94.4391 26.076C94.9011 26.526 95.1321 27.084 95.1321 27.75C95.1321 28.41 94.9011 28.971 94.4391 29.433ZM91.5051 29.019C91.8471 29.361 92.2671 29.532 92.7651 29.532C93.2631 29.532 93.6831 29.361 94.0251 29.019C94.3671 28.665 94.5381 28.242 94.5381 27.75C94.5381 27.252 94.3671 26.832 94.0251 26.49C93.6831 26.142 93.2631 25.968 92.7651 25.968C92.2671 25.968 91.8471 26.142 91.5051 26.49C91.1631 26.832 90.9921 27.252 90.9921 27.75C90.9921 28.242 91.1631 28.665 91.5051 29.019ZM99.8521 25.5H100.536V30H99.9421V26.409L98.3671 28.965H98.2951L96.7201 26.409V30H96.1261V25.5H96.8101L98.3311 27.966L99.8521 25.5ZM105.665 26.382V25.5H106.259V30H105.665V29.118C105.251 29.778 104.645 30.108 103.847 30.108C103.205 30.108 102.656 29.88 102.2 29.424C101.75 28.968 101.525 28.41 101.525 27.75C101.525 27.09 101.75 26.532 102.2 26.076C102.656 25.62 103.205 25.392 103.847 25.392C104.645 25.392 105.251 25.722 105.665 26.382ZM102.632 29.019C102.974 29.361 103.394 29.532 103.892 29.532C104.39 29.532 104.81 29.361 105.152 29.019C105.494 28.665 105.665 28.242 105.665 27.75C105.665 27.252 105.494 26.832 105.152 26.49C104.81 26.142 104.39 25.968 103.892 25.968C103.394 25.968 102.974 26.142 102.632 26.49C102.29 26.832 102.119 27.252 102.119 27.75C102.119 28.242 102.29 28.665 102.632 29.019ZM110.361 28.965L113.043 25.5H113.547V30H112.953V26.535L110.271 30H109.767V25.5H110.361V28.965ZM119.051 30.108C118.409 30.108 117.869 29.895 117.431 29.469C116.999 29.037 116.783 28.479 116.783 27.795C116.783 27.027 116.897 26.439 117.125 26.031C117.353 25.617 117.815 25.242 118.511 24.906C118.733 24.804 118.907 24.726 119.033 24.672C119.243 24.588 119.408 24.516 119.528 24.456C120.05 24.216 120.314 23.919 120.32 23.565L120.788 23.835C120.758 23.985 120.71 24.12 120.644 24.24C120.566 24.372 120.488 24.477 120.41 24.555C120.338 24.633 120.224 24.717 120.068 24.807C119.966 24.867 119.843 24.933 119.699 25.005L119.249 25.194L118.826 25.374C118.412 25.554 118.103 25.743 117.899 25.941C117.701 26.133 117.56 26.385 117.476 26.697C117.668 26.439 117.92 26.244 118.232 26.112C118.544 25.974 118.859 25.905 119.177 25.905C119.777 25.905 120.272 26.103 120.662 26.499C121.058 26.889 121.256 27.39 121.256 28.002C121.256 28.608 121.046 29.112 120.626 29.514C120.212 29.91 119.687 30.108 119.051 30.108ZM117.881 29.073C118.193 29.367 118.583 29.514 119.051 29.514C119.519 29.514 119.903 29.373 120.203 29.091C120.509 28.803 120.662 28.44 120.662 28.002C120.662 27.558 120.518 27.195 120.23 26.913C119.948 26.625 119.57 26.481 119.096 26.481C118.67 26.481 118.283 26.616 117.935 26.886C117.587 27.144 117.413 27.498 117.413 27.948C117.413 28.404 117.569 28.779 117.881 29.073ZM126.029 26.382V25.5H126.623V30H126.029V29.118C125.615 29.778 125.009 30.108 124.211 30.108C123.569 30.108 123.02 29.88 122.564 29.424C122.114 28.968 121.889 28.41 121.889 27.75C121.889 27.09 122.114 26.532 122.564 26.076C123.02 25.62 123.569 25.392 124.211 25.392C125.009 25.392 125.615 25.722 126.029 26.382ZM122.996 29.019C123.338 29.361 123.758 29.532 124.256 29.532C124.754 29.532 125.174 29.361 125.516 29.019C125.858 28.665 126.029 28.242 126.029 27.75C126.029 27.252 125.858 26.832 125.516 26.49C125.174 26.142 124.754 25.968 124.256 25.968C123.758 25.968 123.338 26.142 122.996 26.49C122.654 26.832 122.483 27.252 122.483 27.75C122.483 28.242 122.654 28.665 122.996 29.019ZM131.067 27.462V25.5H131.661V30H131.067V28.038H128.475V30H127.881V25.5H128.475V27.462H131.067ZM133.511 28.965L136.193 25.5H136.697V30H136.103V26.535L133.421 30H132.917V25.5H133.511V28.965ZM143.974 29.433C143.512 29.883 142.954 30.108 142.3 30.108C141.634 30.108 141.073 29.883 140.617 29.433C140.161 28.977 139.933 28.416 139.933 27.75C139.933 27.084 140.161 26.526 140.617 26.076C141.073 25.62 141.634 25.392 142.3 25.392C142.96 25.392 143.518 25.62 143.974 26.076C144.436 26.526 144.667 27.084 144.667 27.75C144.667 28.41 144.436 28.971 143.974 29.433ZM141.04 29.019C141.382 29.361 141.802 29.532 142.3 29.532C142.798 29.532 143.218 29.361 143.56 29.019C143.902 28.665 144.073 28.242 144.073 27.75C144.073 27.252 143.902 26.832 143.56 26.49C143.218 26.142 142.798 25.968 142.3 25.968C141.802 25.968 141.382 26.142 141.04 26.49C140.698 26.832 140.527 27.252 140.527 27.75C140.527 28.242 140.698 28.665 141.04 29.019ZM144.945 25.5H148.725V26.076H147.132V30H146.538V26.076H144.945V25.5ZM154.885 27.462V25.5H155.479V30H154.885V28.038H152.293V30H151.699V25.5H152.293V27.462H154.885ZM160.506 29.433C160.044 29.883 159.486 30.108 158.832 30.108C158.166 30.108 157.605 29.883 157.149 29.433C156.693 28.977 156.465 28.416 156.465 27.75C156.465 27.084 156.693 26.526 157.149 26.076C157.605 25.62 158.166 25.392 158.832 25.392C159.492 25.392 160.05 25.62 160.506 26.076C160.968 26.526 161.199 27.084 161.199 27.75C161.199 28.41 160.968 28.971 160.506 29.433ZM157.572 29.019C157.914 29.361 158.334 29.532 158.832 29.532C159.33 29.532 159.75 29.361 160.092 29.019C160.434 28.665 160.605 28.242 160.605 27.75C160.605 27.252 160.434 26.832 160.092 26.49C159.75 26.142 159.33 25.968 158.832 25.968C158.334 25.968 157.914 26.142 157.572 26.49C157.23 26.832 157.059 27.252 157.059 27.75C157.059 28.242 157.23 28.665 157.572 29.019ZM165.055 27.687C165.547 27.867 165.793 28.218 165.793 28.74C165.793 29.112 165.667 29.415 165.415 29.649C165.169 29.883 164.824 30 164.38 30H162.193V25.5H164.2C164.632 25.5 164.968 25.611 165.208 25.833C165.454 26.055 165.577 26.346 165.577 26.706C165.577 27.156 165.403 27.483 165.055 27.687ZM164.2 26.076H162.787V27.444H164.2C164.722 27.444 164.983 27.21 164.983 26.742C164.983 26.532 164.914 26.37 164.776 26.256C164.644 26.136 164.452 26.076 164.2 26.076ZM162.787 29.424H164.38C164.644 29.424 164.845 29.361 164.983 29.235C165.127 29.109 165.199 28.932 165.199 28.704C165.199 28.488 165.127 28.32 164.983 28.2C164.845 28.08 164.644 28.02 164.38 28.02H162.787V29.424ZM166.693 25.5H169.573V26.076H167.287V30H166.693V25.5ZM173.892 29.433C173.43 29.883 172.872 30.108 172.218 30.108C171.552 30.108 170.991 29.883 170.535 29.433C170.079 28.977 169.851 28.416 169.851 27.75C169.851 27.084 170.079 26.526 170.535 26.076C170.991 25.62 171.552 25.392 172.218 25.392C172.878 25.392 173.436 25.62 173.892 26.076C174.354 26.526 174.585 27.084 174.585 27.75C174.585 28.41 174.354 28.971 173.892 29.433ZM170.958 29.019C171.3 29.361 171.72 29.532 172.218 29.532C172.716 29.532 173.136 29.361 173.478 29.019C173.82 28.665 173.991 28.242 173.991 27.75C173.991 27.252 173.82 26.832 173.478 26.49C173.136 26.142 172.716 25.968 172.218 25.968C171.72 25.968 171.3 26.142 170.958 26.49C170.616 26.832 170.445 27.252 170.445 27.75C170.445 28.242 170.616 28.665 170.958 29.019ZM177.991 25.392C178.633 25.392 179.179 25.62 179.629 26.076C180.085 26.532 180.313 27.09 180.313 27.75C180.313 28.41 180.085 28.968 179.629 29.424C179.179 29.88 178.633 30.108 177.991 30.108C177.193 30.108 176.587 29.778 176.173 29.118V31.8H175.579V25.5H176.173V26.382C176.587 25.722 177.193 25.392 177.991 25.392ZM176.686 29.019C177.028 29.361 177.448 29.532 177.946 29.532C178.444 29.532 178.864 29.361 179.206 29.019C179.548 28.665 179.719 28.242 179.719 27.75C179.719 27.252 179.548 26.832 179.206 26.49C178.864 26.142 178.444 25.968 177.946 25.968C177.448 25.968 177.028 26.142 176.686 26.49C176.344 26.832 176.173 27.252 176.173 27.75C176.173 28.242 176.344 28.665 176.686 29.019ZM185.072 29.433C184.61 29.883 184.052 30.108 183.398 30.108C182.732 30.108 182.171 29.883 181.715 29.433C181.259 28.977 181.031 28.416 181.031 27.75C181.031 27.084 181.259 26.526 181.715 26.076C182.171 25.62 182.732 25.392 183.398 25.392C184.058 25.392 184.616 25.62 185.072 26.076C185.534 26.526 185.765 27.084 185.765 27.75C185.765 28.41 185.534 28.971 185.072 29.433ZM182.138 29.019C182.48 29.361 182.9 29.532 183.398 29.532C183.896 29.532 184.316 29.361 184.658 29.019C185 28.665 185.171 28.242 185.171 27.75C185.171 27.252 185 26.832 184.658 26.49C184.316 26.142 183.896 25.968 183.398 25.968C182.9 25.968 182.48 26.142 182.138 26.49C181.796 26.832 181.625 27.252 181.625 27.75C181.625 28.242 181.796 28.665 182.138 29.019ZM190.363 25.5V29.424H190.993V31.206H190.399V30H186.727V31.206H186.133V29.424H186.682C186.988 29.016 187.141 28.449 187.141 27.723V25.5H190.363ZM187.402 29.424H189.769V26.076H187.735V27.723C187.735 28.419 187.624 28.986 187.402 29.424ZM193.813 30.108C193.135 30.108 192.571 29.883 192.121 29.433C191.671 28.971 191.446 28.41 191.446 27.75C191.446 27.084 191.671 26.526 192.121 26.076C192.571 25.62 193.135 25.392 193.813 25.392C194.257 25.392 194.656 25.5 195.01 25.716C195.364 25.926 195.622 26.211 195.784 26.571L195.298 26.85C195.178 26.58 194.983 26.367 194.713 26.211C194.449 26.049 194.149 25.968 193.813 25.968C193.315 25.968 192.895 26.142 192.553 26.49C192.211 26.832 192.04 27.252 192.04 27.75C192.04 28.242 192.211 28.665 192.553 29.019C192.895 29.361 193.315 29.532 193.813 29.532C194.143 29.532 194.44 29.454 194.704 29.298C194.974 29.142 195.184 28.926 195.334 28.65L195.829 28.938C195.643 29.298 195.37 29.583 195.01 29.793C194.65 30.003 194.251 30.108 193.813 30.108ZM197.906 27.66L200.318 30H199.526L197.276 27.831V30H196.682V25.5H197.276V27.489L199.418 25.5H200.228L197.906 27.66ZM201.723 28.965L204.405 25.5H204.909V30H204.315V26.535L201.633 30H201.129V25.5H201.723V28.965ZM208.19 27.669L209.945 30H209.234L207.83 28.146L206.426 30H205.715L207.479 27.669L205.832 25.5H206.543L207.83 27.201L209.117 25.5H209.828L208.19 27.669ZM88.356 36.5H89.04V41H88.446V37.409L86.871 39.965H86.799L85.224 37.409V41H84.63V36.5H85.314L86.835 38.966L88.356 36.5ZM94.1689 37.382V36.5H94.7629V41H94.1689V40.118C93.7549 40.778 93.1489 41.108 92.3509 41.108C91.7089 41.108 91.1599 40.88 90.7039 40.424C90.2539 39.968 90.0289 39.41 90.0289 38.75C90.0289 38.09 90.2539 37.532 90.7039 37.076C91.1599 36.62 91.7089 36.392 92.3509 36.392C93.1489 36.392 93.7549 36.722 94.1689 37.382ZM91.1359 40.019C91.4779 40.361 91.8979 40.532 92.3959 40.532C92.8939 40.532 93.3139 40.361 93.6559 40.019C93.9979 39.665 94.1689 39.242 94.1689 38.75C94.1689 38.252 93.9979 37.832 93.6559 37.49C93.3139 37.142 92.8939 36.968 92.3959 36.968C91.8979 36.968 91.4779 37.142 91.1359 37.49C90.7939 37.832 90.6229 38.252 90.6229 38.75C90.6229 39.242 90.7939 39.665 91.1359 40.019ZM98.1176 41.108C97.4396 41.108 96.8756 40.883 96.4256 40.433C95.9756 39.971 95.7506 39.41 95.7506 38.75C95.7506 38.084 95.9756 37.526 96.4256 37.076C96.8756 36.62 97.4396 36.392 98.1176 36.392C98.5616 36.392 98.9606 36.5 99.3146 36.716C99.6686 36.926 99.9266 37.211 100.089 37.571L99.6026 37.85C99.4826 37.58 99.2876 37.367 99.0176 37.211C98.7536 37.049 98.4536 36.968 98.1176 36.968C97.6196 36.968 97.1996 37.142 96.8576 37.49C96.5156 37.832 96.3446 38.252 96.3446 38.75C96.3446 39.242 96.5156 39.665 96.8576 40.019C97.1996 40.361 97.6196 40.532 98.1176 40.532C98.4476 40.532 98.7446 40.454 99.0086 40.298C99.2786 40.142 99.4886 39.926 99.6386 39.65L100.134 39.938C99.9476 40.298 99.6746 40.583 99.3146 40.793C98.9546 41.003 98.5556 41.108 98.1176 41.108ZM100.359 36.5H104.139V37.076H102.546V41H101.952V37.076H100.359V36.5ZM106.766 36.392C107.438 36.392 107.975 36.629 108.377 37.103C108.791 37.571 108.998 38.126 108.998 38.768C108.998 38.798 108.992 38.891 108.98 39.047H105.029C105.089 39.497 105.281 39.857 105.605 40.127C105.929 40.397 106.334 40.532 106.82 40.532C107.504 40.532 107.987 40.277 108.269 39.767L108.791 40.073C108.593 40.397 108.32 40.652 107.972 40.838C107.63 41.018 107.243 41.108 106.811 41.108C106.103 41.108 105.527 40.886 105.083 40.442C104.639 39.998 104.417 39.434 104.417 38.75C104.417 38.072 104.636 37.511 105.074 37.067C105.512 36.617 106.076 36.392 106.766 36.392ZM106.766 36.968C106.298 36.968 105.905 37.106 105.587 37.382C105.275 37.658 105.089 38.021 105.029 38.471H108.386C108.32 37.991 108.137 37.622 107.837 37.364C107.525 37.1 107.168 36.968 106.766 36.968ZM112.355 36.392C112.997 36.392 113.543 36.62 113.993 37.076C114.449 37.532 114.677 38.09 114.677 38.75C114.677 39.41 114.449 39.968 113.993 40.424C113.543 40.88 112.997 41.108 112.355 41.108C111.557 41.108 110.951 40.778 110.537 40.118V42.8H109.943V36.5H110.537V37.382C110.951 36.722 111.557 36.392 112.355 36.392ZM111.05 40.019C111.392 40.361 111.812 40.532 112.31 40.532C112.808 40.532 113.228 40.361 113.57 40.019C113.912 39.665 114.083 39.242 114.083 38.75C114.083 38.252 113.912 37.832 113.57 37.49C113.228 37.142 112.808 36.968 112.31 36.968C111.812 36.968 111.392 37.142 111.05 37.49C110.708 37.832 110.537 38.252 110.537 38.75C110.537 39.242 110.708 39.665 111.05 40.019ZM119.435 40.433C118.973 40.883 118.415 41.108 117.761 41.108C117.095 41.108 116.534 40.883 116.078 40.433C115.622 39.977 115.394 39.416 115.394 38.75C115.394 38.084 115.622 37.526 116.078 37.076C116.534 36.62 117.095 36.392 117.761 36.392C118.421 36.392 118.979 36.62 119.435 37.076C119.897 37.526 120.128 38.084 120.128 38.75C120.128 39.41 119.897 39.971 119.435 40.433ZM116.501 40.019C116.843 40.361 117.263 40.532 117.761 40.532C118.259 40.532 118.679 40.361 119.021 40.019C119.363 39.665 119.534 39.242 119.534 38.75C119.534 38.252 119.363 37.832 119.021 37.49C118.679 37.142 118.259 36.968 117.761 36.968C117.263 36.968 116.843 37.142 116.501 37.49C116.159 37.832 115.988 38.252 115.988 38.75C115.988 39.242 116.159 39.665 116.501 40.019ZM123.984 38.687C124.476 38.867 124.722 39.218 124.722 39.74C124.722 40.112 124.596 40.415 124.344 40.649C124.098 40.883 123.753 41 123.309 41H121.122V36.5H123.129C123.561 36.5 123.897 36.611 124.137 36.833C124.383 37.055 124.506 37.346 124.506 37.706C124.506 38.156 124.332 38.483 123.984 38.687ZM123.129 37.076H121.716V38.444H123.129C123.651 38.444 123.912 38.21 123.912 37.742C123.912 37.532 123.843 37.37 123.705 37.256C123.573 37.136 123.381 37.076 123.129 37.076ZM121.716 40.424H123.309C123.573 40.424 123.774 40.361 123.912 40.235C124.056 40.109 124.128 39.932 124.128 39.704C124.128 39.488 124.056 39.32 123.912 39.2C123.774 39.08 123.573 39.02 123.309 39.02H121.716V40.424Z" fill="#909195"/>
<path d="M84.5977 12.6337C84.4838 12.6337 84.4269 12.5768 84.4269 12.4629C84.4269 12.4174 84.4383 12.3263 84.4611 12.1897C84.4952 12.0531 84.5351 11.9449 84.5806 11.8653C85.0018 11.8425 85.2921 11.7286 85.4515 11.5237C85.6223 11.3074 85.7077 10.9659 85.7077 10.4991V2.72919C85.7077 2.36489 85.6849 2.10873 85.6394 1.96074C85.5938 1.80135 85.4914 1.69889 85.332 1.65335C85.184 1.60782 84.9449 1.57366 84.6148 1.55089C84.6148 1.4029 84.6262 1.26628 84.6489 1.14105C84.6717 1.00444 84.6888 0.907669 84.7002 0.850747C84.7343 0.736902 84.7969 0.679979 84.888 0.679979H88.44C88.5538 0.679979 88.6107 0.736902 88.6107 0.850747C88.6107 0.896285 88.5937 0.987361 88.5595 1.12398C88.5367 1.26059 88.5026 1.36874 88.457 1.44843C88.0017 1.45982 87.7057 1.56228 87.569 1.75582C87.4324 1.93797 87.3641 2.26243 87.3641 2.72919V5.87131H93.4435V2.72919C93.4435 2.37627 93.4207 2.12012 93.3751 1.96074C93.3296 1.80135 93.2271 1.69889 93.0678 1.65335C92.9198 1.60782 92.6807 1.57366 92.3505 1.55089C92.3505 1.4029 92.3619 1.26628 92.3847 1.14105C92.4075 1.00444 92.4245 0.907669 92.4359 0.850747C92.4701 0.736902 92.5327 0.679979 92.6238 0.679979H96.1245C96.2383 0.679979 96.2953 0.736902 96.2953 0.850747C96.2953 0.896285 96.2782 0.987361 96.244 1.12398C96.2213 1.26059 96.1871 1.36874 96.1416 1.44843C95.7204 1.45982 95.4414 1.56228 95.3048 1.75582C95.1682 1.93797 95.0999 2.26243 95.0999 2.72919V10.4991C95.0999 11 95.1227 11.3245 95.1682 11.4725C95.2137 11.6205 95.3219 11.7059 95.4927 11.7286C95.561 11.74 95.6691 11.7514 95.8171 11.7628C95.9651 11.7628 96.096 11.7628 96.2099 11.7628C96.2099 12.0702 96.1871 12.3036 96.1416 12.4629C96.1074 12.5768 96.0448 12.6337 95.9537 12.6337H92.2993C92.1855 12.6337 92.1285 12.5768 92.1285 12.4629C92.1285 12.4174 92.1399 12.3263 92.1627 12.1897C92.1969 12.0531 92.2367 11.9449 92.2822 11.8653C92.7035 11.8425 92.9995 11.7286 93.1702 11.5237C93.3524 11.3074 93.4435 10.9659 93.4435 10.4991V6.9813H87.3641V10.4991C87.3641 11 87.3869 11.3245 87.4324 11.4725C87.478 11.6205 87.5861 11.7059 87.7569 11.7286C87.848 11.74 87.9675 11.7514 88.1155 11.7628C88.2749 11.7628 88.4115 11.7628 88.5253 11.7628C88.5253 12.0702 88.5026 12.3036 88.457 12.4629C88.4229 12.5768 88.3603 12.6337 88.2692 12.6337H84.5977Z" fill="#E5E5E6"/>
<path d="M103.382 12.8899C102.551 12.8899 101.777 12.7476 101.06 12.4629C100.354 12.1669 99.7334 11.7514 99.1983 11.2163C98.6632 10.6813 98.242 10.0494 97.9346 9.32082C97.6386 8.59221 97.4906 7.79529 97.4906 6.93007C97.4906 5.98516 97.6557 5.11994 97.9859 4.3344C98.3274 3.53749 98.7942 2.84873 99.3862 2.26812C99.9895 1.67612 100.69 1.22074 101.487 0.901977C102.284 0.583211 103.137 0.423828 104.048 0.423828C104.913 0.423828 105.705 0.577519 106.422 0.884901C107.15 1.1809 107.777 1.59643 108.3 2.1315C108.824 2.66658 109.228 3.29842 109.513 4.02702C109.809 4.74425 109.957 5.52978 109.957 6.38362C109.957 7.31715 109.792 8.18237 109.461 8.97928C109.143 9.7762 108.687 10.465 108.095 11.0456C107.515 11.6262 106.82 12.0816 106.012 12.4117C105.215 12.7305 104.338 12.8899 103.382 12.8899ZM103.826 11.8482C104.703 11.8482 105.471 11.6376 106.131 11.2163C106.792 10.7951 107.304 10.2088 107.668 9.45743C108.033 8.70605 108.215 7.84083 108.215 6.86176C108.215 5.80301 108.021 4.86948 107.634 4.06118C107.259 3.25288 106.723 2.62104 106.029 2.16566C105.335 1.69889 104.521 1.46551 103.587 1.46551C102.767 1.46551 102.027 1.68182 101.367 2.11443C100.718 2.53565 100.2 3.12195 99.8131 3.87333C99.426 4.62471 99.2325 5.48424 99.2325 6.45192C99.2325 7.52207 99.4317 8.46129 99.8302 9.26959C100.24 10.0779 100.792 10.7097 101.487 11.1651C102.181 11.6205 102.961 11.8482 103.826 11.8482Z" fill="#E5E5E6"/>
<path d="M110.974 1.55089C110.974 1.4029 110.985 1.26628 111.008 1.14105C111.031 1.00444 111.048 0.907669 111.059 0.850747C111.093 0.736902 111.156 0.679979 111.247 0.679979H114.885C114.998 0.679979 115.055 0.736902 115.055 0.850747C115.055 0.896285 115.038 0.987361 115.004 1.12398C114.981 1.26059 114.947 1.36874 114.902 1.44843C114.446 1.45982 114.133 1.56228 113.962 1.75582C113.803 1.93797 113.723 2.26243 113.723 2.72919V8.36452C113.723 9.46882 113.997 10.3283 114.543 10.9431C115.101 11.5579 115.864 11.8653 116.831 11.8653C117.947 11.8653 118.795 11.5579 119.376 10.9431C119.968 10.317 120.264 9.45743 120.264 8.36452V2.72919C120.264 2.36489 120.23 2.10304 120.161 1.94366C120.104 1.78428 119.979 1.68182 119.786 1.63628C119.603 1.59074 119.324 1.56228 118.949 1.55089C118.949 1.4029 118.96 1.26628 118.983 1.14105C119.006 1.00444 119.023 0.907669 119.034 0.850747C119.068 0.736902 119.131 0.679979 119.222 0.679979H122.415C122.529 0.679979 122.586 0.736902 122.586 0.850747C122.586 0.896285 122.569 0.987361 122.535 1.12398C122.512 1.26059 122.478 1.36874 122.432 1.44843C122.011 1.45982 121.715 1.56228 121.544 1.75582C121.385 1.93797 121.305 2.26812 121.305 2.74627V8.36452C121.305 9.25251 121.129 10.038 120.776 10.7211C120.423 11.4042 119.899 11.9393 119.205 12.3263C118.51 12.702 117.657 12.8899 116.643 12.8899C115.198 12.8899 114.071 12.5256 113.262 11.7969C112.465 11.057 112.067 9.91281 112.067 8.36452V2.72919C112.067 2.3535 112.044 2.08597 111.999 1.92658C111.953 1.7672 111.851 1.67043 111.691 1.63628C111.543 1.59074 111.304 1.56228 110.974 1.55089Z" fill="#E5E5E6"/>
<path d="M127.515 12.8899C126.991 12.8899 126.467 12.8216 125.944 12.6849C125.42 12.5483 124.953 12.3776 124.543 12.1726C124.133 11.9677 123.837 11.7571 123.655 11.5408L123.519 8.80851C123.61 8.78575 123.729 8.76867 123.877 8.75729C124.025 8.73452 124.133 8.72313 124.202 8.72313C124.304 8.72313 124.373 8.7459 124.407 8.79144C124.452 8.83698 124.481 8.89959 124.492 8.97928L124.851 10.6187C125.204 10.9943 125.631 11.3017 126.131 11.5408C126.644 11.7799 127.162 11.8994 127.685 11.8994C128.425 11.8994 129.006 11.7002 129.427 11.3017C129.848 10.9033 130.059 10.3625 130.059 9.67943C130.059 9.08744 129.905 8.61498 129.598 8.26206C129.291 7.89775 128.904 7.60176 128.437 7.37407C127.97 7.14638 127.486 6.94146 126.985 6.7593C125.847 6.33808 125.039 5.87131 124.56 5.35901C124.082 4.84671 123.849 4.22625 123.86 3.49764C123.872 2.80319 124.065 2.22827 124.441 1.77289C124.817 1.31751 125.306 0.981668 125.909 0.765363C126.513 0.537673 127.156 0.423828 127.839 0.423828C128.738 0.423828 129.587 0.623057 130.384 1.02151L130.879 1.05567C130.993 1.06705 131.061 1.13536 131.084 1.26059L131.152 3.70256C131.061 3.72533 130.953 3.7481 130.828 3.77087C130.714 3.78226 130.628 3.78795 130.571 3.78795C130.446 3.78795 130.366 3.71964 130.332 3.58303L129.974 2.42181C129.803 2.09166 129.53 1.81843 129.154 1.60212C128.778 1.38582 128.306 1.27767 127.737 1.27767C127.35 1.27767 126.974 1.34028 126.61 1.46551C126.257 1.57935 125.966 1.76151 125.739 2.01197C125.522 2.26243 125.409 2.59827 125.397 3.0195C125.397 3.47487 125.511 3.85626 125.739 4.16364C125.966 4.47102 126.268 4.72717 126.644 4.93209C127.019 5.13701 127.412 5.31917 127.822 5.47855C128.277 5.64932 128.733 5.84854 129.188 6.07623C129.644 6.29254 130.059 6.54869 130.435 6.84469C130.822 7.14069 131.129 7.49361 131.357 7.90345C131.596 8.3019 131.716 8.77436 131.716 9.32082C131.716 10.0494 131.528 10.6813 131.152 11.2163C130.788 11.7514 130.287 12.1669 129.649 12.4629C129.012 12.7476 128.3 12.8899 127.515 12.8899Z" fill="#E5E5E6"/>
<path d="M140.85 12.6508L132.91 12.6337C132.796 12.6337 132.739 12.5768 132.739 12.4629C132.739 12.4174 132.75 12.3263 132.773 12.1897C132.807 12.0531 132.847 11.9449 132.892 11.8653C133.314 11.8311 133.604 11.7116 133.763 11.5066C133.934 11.3017 134.02 10.9659 134.02 10.4991V2.72919C134.02 2.34212 133.997 2.06889 133.951 1.90951C133.906 1.75012 133.803 1.65335 133.644 1.6192C133.496 1.57366 133.257 1.55089 132.927 1.55089C132.927 1.4029 132.938 1.26628 132.961 1.14105C132.984 1.00444 133.001 0.907669 133.012 0.850747C133.046 0.736902 133.109 0.679979 133.2 0.679979H140.628C140.753 0.679979 140.839 0.70844 140.884 0.765363C140.93 0.810901 140.958 0.896285 140.97 1.02151L141.106 3.13903C141.038 3.17319 140.936 3.20165 140.799 3.22442C140.662 3.24718 140.566 3.25857 140.509 3.25857C140.361 3.25857 140.275 3.19595 140.253 3.07072L140.116 2.3535C140.07 2.08027 140.002 1.90381 139.911 1.82412C139.82 1.74443 139.638 1.70458 139.365 1.70458L136.701 1.67043C136.37 1.65905 136.131 1.68182 135.983 1.73874C135.847 1.78428 135.761 1.88674 135.727 2.04612C135.693 2.19412 135.676 2.4275 135.676 2.74627V5.78593H137.947C138.414 5.78593 138.716 5.72901 138.852 5.61516C139 5.50132 139.08 5.27932 139.091 4.94917C139.171 4.90363 139.274 4.87517 139.399 4.86378C139.535 4.84102 139.626 4.82963 139.672 4.82963C139.786 4.82963 139.843 4.88655 139.843 5.0004L139.774 7.85222C139.774 7.94329 139.718 8.00591 139.604 8.04006C139.547 8.05145 139.456 8.06852 139.33 8.09129C139.205 8.11406 139.08 8.12544 138.955 8.12544C138.955 7.72699 138.932 7.43099 138.886 7.23745C138.852 7.04392 138.761 6.91869 138.613 6.86176C138.477 6.79346 138.255 6.7593 137.947 6.7593H135.676V10.482C135.676 10.9943 135.744 11.3245 135.881 11.4725C136.018 11.6091 136.228 11.6717 136.513 11.6603L139.467 11.592C139.797 11.5806 140.048 11.5294 140.218 11.4383C140.401 11.3473 140.531 11.1765 140.611 10.926L140.884 10.1405C140.941 10.0153 141.027 9.95266 141.141 9.95266C141.197 9.95266 141.289 9.96973 141.414 10.0039C141.539 10.038 141.636 10.0722 141.704 10.1063L141.328 12.2409C141.271 12.5142 141.112 12.6508 140.85 12.6508Z" fill="#E5E5E6"/>
<path d="M158.113 12.8899L155.739 5.52978L153.502 12.4288C153.411 12.7362 153.24 12.8899 152.99 12.8899H152.375L149.182 3.20734C148.886 2.28519 148.544 1.7672 148.157 1.65335C148.055 1.6192 147.946 1.59643 147.833 1.58505C147.73 1.57366 147.594 1.56228 147.423 1.55089C147.423 1.24351 147.446 1.01013 147.491 0.850747C147.525 0.736902 147.588 0.679979 147.679 0.679979H151.368C151.481 0.679979 151.538 0.736902 151.538 0.850747C151.538 0.896285 151.521 0.987361 151.487 1.12398C151.464 1.26059 151.43 1.36874 151.385 1.44843C151.089 1.45982 150.878 1.51105 150.753 1.60212C150.639 1.68182 150.582 1.81274 150.582 1.99489C150.582 2.10873 150.605 2.25104 150.65 2.42181C150.696 2.58119 150.753 2.76904 150.821 2.98534L153.109 10.0722C153.132 10.1177 153.166 10.1405 153.212 10.1405C153.257 10.1405 153.286 10.1177 153.297 10.0722L155.261 4.07825L154.988 3.20734C154.84 2.74057 154.68 2.38196 154.51 2.1315C154.339 1.88104 154.157 1.72166 153.963 1.65335C153.861 1.6192 153.753 1.59643 153.639 1.58505C153.536 1.57366 153.4 1.56228 153.229 1.55089C153.229 1.24351 153.252 1.01013 153.297 0.850747C153.331 0.736902 153.394 0.679979 153.485 0.679979H157.174C157.242 0.679979 157.27 0.714133 157.259 0.782439C157.259 0.816593 157.259 0.839362 157.259 0.850747C157.259 0.862131 157.259 0.873516 157.259 0.884901C157.259 0.953208 157.253 1.04998 157.242 1.1752C157.242 1.28905 157.225 1.38013 157.191 1.44843C156.895 1.45982 156.69 1.51105 156.576 1.60212C156.462 1.68182 156.405 1.80704 156.405 1.97781C156.405 2.09166 156.422 2.23396 156.456 2.40473C156.502 2.5755 156.559 2.76904 156.627 2.98534L158.847 10.0722C158.87 10.1177 158.904 10.1405 158.95 10.1405C158.995 10.1405 159.024 10.1177 159.035 10.0722L161.101 2.84873C161.158 2.66657 161.198 2.51288 161.221 2.38766C161.255 2.25104 161.272 2.1372 161.272 2.04612C161.272 1.85258 161.204 1.72735 161.067 1.67043C160.931 1.60212 160.697 1.56228 160.367 1.55089C160.367 1.4029 160.378 1.26628 160.401 1.14105C160.435 1.00444 160.458 0.907669 160.469 0.850747C160.504 0.736902 160.566 0.679979 160.657 0.679979H163.56C163.674 0.679979 163.731 0.736902 163.731 0.850747C163.731 0.896285 163.714 0.987361 163.68 1.12398C163.657 1.26059 163.623 1.36874 163.577 1.44843C163.213 1.49397 162.934 1.59643 162.741 1.75582C162.547 1.9152 162.371 2.26243 162.211 2.7975L159.24 12.4288C159.149 12.7362 158.978 12.8899 158.728 12.8899H158.113Z" fill="#E5E5E6"/>
<path d="M169.871 12.8899C169.04 12.8899 168.266 12.7476 167.549 12.4629C166.843 12.1669 166.223 11.7514 165.688 11.2163C165.153 10.6813 164.731 10.0494 164.424 9.32082C164.128 8.59221 163.98 7.79529 163.98 6.93007C163.98 5.98516 164.145 5.11994 164.475 4.3344C164.817 3.53749 165.283 2.84873 165.875 2.26812C166.479 1.67612 167.179 1.22074 167.976 0.901977C168.773 0.583211 169.627 0.423828 170.537 0.423828C171.403 0.423828 172.194 0.577519 172.911 0.884901C173.64 1.1809 174.266 1.59643 174.79 2.1315C175.313 2.66658 175.717 3.29842 176.002 4.02702C176.298 4.74425 176.446 5.52978 176.446 6.38362C176.446 7.31715 176.281 8.18237 175.951 8.97928C175.632 9.7762 175.177 10.465 174.585 11.0456C174.004 11.6262 173.31 12.0816 172.501 12.4117C171.704 12.7305 170.828 12.8899 169.871 12.8899ZM170.315 11.8482C171.192 11.8482 171.96 11.6376 172.621 11.2163C173.281 10.7951 173.793 10.2088 174.158 9.45743C174.522 8.70605 174.704 7.84083 174.704 6.86176C174.704 5.80301 174.511 4.86948 174.124 4.06118C173.748 3.25288 173.213 2.62104 172.518 2.16566C171.824 1.69889 171.01 1.46551 170.076 1.46551C169.257 1.46551 168.517 1.68182 167.856 2.11443C167.207 2.53565 166.689 3.12195 166.302 3.87333C165.915 4.62471 165.722 5.48424 165.722 6.45192C165.722 7.52207 165.921 8.46129 166.319 9.26959C166.729 10.0779 167.281 10.7097 167.976 11.1651C168.67 11.6205 169.45 11.8482 170.315 11.8482Z" fill="#E5E5E6"/>
<path d="M177.719 12.6337C177.606 12.6337 177.549 12.5768 177.549 12.4629C177.549 12.4174 177.56 12.3263 177.583 12.1897C177.617 12.0531 177.657 11.9449 177.702 11.8653C178.124 11.8425 178.414 11.7286 178.573 11.5237C178.744 11.3074 178.829 10.9659 178.829 10.4991V2.72919C178.829 2.34212 178.807 2.06889 178.761 1.90951C178.716 1.75012 178.613 1.65335 178.454 1.6192C178.306 1.57366 178.067 1.55089 177.736 1.55089C177.736 1.4029 177.748 1.26628 177.771 1.14105C177.793 1.00444 177.81 0.907669 177.822 0.850747C177.856 0.736902 177.919 0.679979 178.01 0.679979H182.142C183.497 0.679979 184.55 0.947515 185.301 1.48259C186.053 2.00627 186.429 2.75765 186.429 3.73672C186.429 4.5564 186.178 5.25086 185.677 5.82008C185.188 6.38931 184.55 6.82761 183.765 7.13499C184.413 8.12544 184.949 8.92805 185.37 9.54282C185.791 10.1576 186.15 10.63 186.446 10.9602C186.742 11.279 187.009 11.4953 187.248 11.6091C187.499 11.7229 187.766 11.7799 188.051 11.7799C188.074 11.9165 188.062 12.0759 188.017 12.258C187.983 12.4288 187.937 12.554 187.88 12.6337C187.482 12.7931 187.072 12.8728 186.651 12.8728C186.286 12.8728 185.973 12.7817 185.711 12.5996C185.449 12.4174 185.131 12.0531 184.755 11.5066L182.245 7.51068C181.835 7.5676 181.419 7.59607 180.998 7.59607C180.827 7.59607 180.657 7.59037 180.486 7.57899V10.4991C180.486 11 180.509 11.3245 180.554 11.4725C180.6 11.6205 180.708 11.7059 180.879 11.7286C180.97 11.74 181.089 11.7514 181.237 11.7628C181.397 11.7628 181.533 11.7628 181.647 11.7628C181.647 12.0702 181.624 12.3036 181.579 12.4629C181.545 12.5768 181.482 12.6337 181.391 12.6337H177.719ZM180.486 6.50315C180.907 6.58284 181.311 6.62269 181.698 6.62269C182.746 6.62269 183.508 6.395 183.987 5.93962C184.476 5.48424 184.721 4.80686 184.721 3.90749C184.721 3.14472 184.482 2.56411 184.004 2.16566C183.525 1.75581 182.842 1.55089 181.954 1.55089C181.556 1.55089 181.214 1.57935 180.93 1.63628C180.748 1.68182 180.628 1.79566 180.571 1.97781C180.514 2.15996 180.486 2.41042 180.486 2.72919V6.50315Z" fill="#E5E5E6"/>
<path d="M196.532 12.6508L188.642 12.6337C188.529 12.6337 188.472 12.5768 188.472 12.4629C188.472 12.4174 188.483 12.3263 188.506 12.1897C188.54 12.0531 188.58 11.9449 188.625 11.8653C189.047 11.8311 189.337 11.7116 189.496 11.5066C189.667 11.3017 189.752 10.9659 189.752 10.4991V2.72919C189.752 2.34212 189.73 2.06889 189.684 1.90951C189.639 1.75012 189.536 1.65335 189.377 1.6192C189.229 1.57366 188.99 1.55089 188.66 1.55089C188.66 1.4029 188.671 1.26628 188.694 1.14105C188.716 1.00444 188.734 0.907669 188.745 0.850747C188.779 0.736902 188.842 0.679979 188.933 0.679979H192.656C192.769 0.679979 192.826 0.736902 192.826 0.850747C192.826 0.896285 192.809 0.987361 192.775 1.12398C192.752 1.26059 192.718 1.36874 192.673 1.44843C192.172 1.45982 191.836 1.56228 191.665 1.75582C191.494 1.93797 191.409 2.26243 191.409 2.72919V10.4991C191.409 11.0114 191.477 11.3302 191.614 11.4554C191.75 11.5806 191.961 11.6376 192.246 11.6262L195.132 11.5579C195.462 11.5465 195.707 11.4725 195.866 11.3359C196.037 11.1993 196.173 11.0057 196.276 10.7553L196.617 9.90143C196.674 9.7762 196.76 9.71358 196.873 9.71358C196.93 9.71358 197.021 9.73066 197.147 9.76481C197.272 9.78758 197.369 9.81604 197.437 9.8502L197.01 12.2409C196.953 12.5142 196.794 12.6508 196.532 12.6508Z" fill="#E5E5E6"/>
<path d="M198.211 12.48C198.211 12.4231 198.222 12.3263 198.245 12.1897C198.279 12.0531 198.319 11.9449 198.365 11.8653C198.786 11.8425 199.076 11.7286 199.235 11.5237C199.406 11.3074 199.492 10.9659 199.492 10.4991V2.72919C199.492 2.3535 199.469 2.08597 199.423 1.92658C199.378 1.75581 199.275 1.65335 199.116 1.6192C198.968 1.57366 198.729 1.55089 198.399 1.55089C198.399 1.4029 198.41 1.26628 198.433 1.14105C198.456 1.00444 198.473 0.907669 198.484 0.850747C198.507 0.75967 198.541 0.70844 198.587 0.697056C198.632 0.685671 198.661 0.679979 198.672 0.679979H202.634C204.831 0.679979 206.522 1.15813 207.705 2.11443C208.889 3.05934 209.481 4.47671 209.481 6.36654C209.481 7.63022 209.185 8.74021 208.593 9.69651C208.001 10.6528 207.136 11.3928 205.998 11.9165C204.859 12.4288 203.47 12.6679 201.831 12.6337H198.382C198.268 12.6337 198.211 12.5825 198.211 12.48ZM201.148 10.4991C201.148 10.7723 201.165 10.9943 201.199 11.1651C201.245 11.3359 201.359 11.4611 201.541 11.5408C201.723 11.6091 202.036 11.6433 202.48 11.6433C203.539 11.6433 204.467 11.4497 205.264 11.0626C206.06 10.6756 206.675 10.0893 207.108 9.30374C207.552 8.51821 207.774 7.53345 207.774 6.34946C207.774 5.18824 207.563 4.2661 207.142 3.58303C206.721 2.89996 206.134 2.41042 205.383 2.11443C204.643 1.81843 203.778 1.67043 202.787 1.67043H202.087C201.757 1.67043 201.518 1.75012 201.37 1.90951C201.222 2.06889 201.148 2.34212 201.148 2.72919V10.4991Z" fill="#E5E5E6"/>
<path d="M74 35.7191L40.8079 3.70803C39.241 2.19682 36.759 2.19682 35.1921 3.70803L2 35.7191" stroke="white" stroke-width="2.02247" stroke-linecap="round" stroke-linejoin="round"/>
<path d="M61.7303 9.02246V23.0449" stroke="white" stroke-width="2.02247" stroke-linecap="round" stroke-linejoin="round"/>
<rect x="31.9326" y="19.4043" width="5.1236" height="5.1236" rx="0.674157" fill="white"/>
<rect x="31.9326" y="25.8765" width="5.1236" height="5.1236" rx="0.674157" fill="white"/>
<rect x="38.5393" y="19.4043" width="5.1236" height="5.1236" rx="0.674157" fill="white"/>
<rect x="38.5393" y="25.8765" width="5.1236" height="5.1236" rx="0.674157" fill="white"/>
</svg>
