<svg width="38" height="38" viewBox="0 0 38 38" fill="none" xmlns="http://www.w3.org/2000/svg">
<rect width="38" height="38" rx="19" fill="#84B73D"/>
<path d="M11.3487 23.4981L11.4002 23.3082L11.3023 23.1375C10.5077 21.7518 10.0445 20.1011 10.0445 18.4555C10.0445 13.247 14.2791 9.0248 19.5098 9.0248C22.0247 9.0248 24.4068 10.0135 26.1952 11.7956C27.9769 13.5712 28.907 15.9431 28.975 18.3927C28.9715 23.5982 24.7383 27.817 19.5098 27.817C17.922 27.817 16.3983 27.4218 15.0027 26.6933L14.84 26.6084L14.6624 26.6549L10.1732 27.8322L11.3487 23.4981ZM20.9327 23.5379L20.9625 23.5498L20.9937 23.5576C21.6147 23.7123 22.2344 23.7137 22.7106 23.6354C23.049 23.5857 23.4782 23.3912 23.8367 23.1562C24.1873 22.9263 24.5912 22.5794 24.7507 22.1556C24.8707 21.8367 24.9325 21.5334 24.9534 21.273C24.9734 21.0236 24.9586 20.7791 24.8956 20.5908L24.86 20.4843L24.7804 20.405C24.6961 20.321 24.5946 20.2601 24.5101 20.2133C24.4257 20.1666 24.3181 20.1129 24.1926 20.0503C24.0364 19.9532 23.6671 19.7625 23.3362 19.5976C23.1515 19.5056 22.9655 19.4151 22.8114 19.3428C22.6694 19.2761 22.5244 19.2104 22.44 19.1824C22.4346 19.1806 22.4285 19.1785 22.4219 19.1763C22.3338 19.1464 22.1421 19.0814 21.9433 19.0995C21.8187 19.1108 21.6877 19.1528 21.5676 19.2418C21.4513 19.3279 21.3688 19.4406 21.3096 19.5587C21.267 19.6436 21.1435 19.8137 20.9847 20.0071C20.8422 20.1807 20.7049 20.3328 20.6444 20.3947C20.6386 20.3921 20.6322 20.389 20.6252 20.3856C20.5762 20.3611 20.5172 20.3343 20.4489 20.3032C20.0911 20.1404 19.4792 19.862 18.7114 19.2072C18.0613 18.617 17.6307 17.9762 17.4717 17.6935C17.4749 17.6904 17.4782 17.6871 17.4816 17.6837C17.5204 17.645 17.5571 17.5997 17.5821 17.5683C17.6002 17.5455 17.6213 17.5183 17.6414 17.4925C17.6508 17.4804 17.66 17.4686 17.6685 17.4576C17.7294 17.3796 17.7828 17.3142 17.8292 17.268C18.0232 17.0747 18.1218 16.878 18.1911 16.7397L18.1965 16.729C18.3333 16.4564 18.3333 16.1599 18.1965 15.8873L18.1619 15.8183L18.1512 15.8077C18.1355 15.7752 18.1143 15.7284 18.0877 15.6677C18.0314 15.5387 17.9593 15.3655 17.8812 15.1753C17.8329 15.0577 17.7823 14.9334 17.7322 14.8105C17.623 14.5424 17.5166 14.2811 17.4437 14.1116C17.3178 13.8189 17.1492 13.5902 16.8992 13.477C16.68 13.3776 16.4154 13.4087 16.4512 13.4087H16.4504H16.4496H16.4488H16.4479H16.4471H16.4463H16.4455H16.4446H16.4438H16.443H16.4422H16.4413H16.4405H16.4397H16.4388H16.438H16.4371H16.4363H16.4355H16.4346H16.4338H16.4329H16.4321H16.4312H16.4304H16.4295H16.4287H16.4278H16.4269H16.4261H16.4252H16.4244H16.4235H16.4226H16.4218H16.4209H16.42H16.4192H16.4183H16.4174H16.4166H16.4157H16.4148H16.4139H16.413H16.4122H16.4113H16.4104H16.4095H16.4086H16.4077H16.4069H16.406H16.4051H16.4042H16.4033H16.4024H16.4015H16.4006H16.3997H16.3988H16.3979H16.397H16.3961H16.3952H16.3943H16.3934H16.3925H16.3916H16.3907H16.3897H16.3888H16.3879H16.387H16.3861H16.3852H16.3842H16.3833H16.3824H16.3815H16.3806H16.3796H16.3787H16.3778H16.3769H16.3759H16.375H16.3741H16.3731H16.3722H16.3713H16.3703H16.3694H16.3685H16.3675H16.3666H16.3657H16.3647H16.3638H16.3628H16.3619H16.361H16.36H16.3591H16.3581H16.3572H16.3562H16.3553H16.3543H16.3534H16.3524H16.3515H16.3505H16.3495H16.3486H16.3476H16.3467H16.3457H16.3448H16.3438H16.3428H16.3419H16.3409H16.34H16.339H16.338H16.3371H16.3361H16.3351H16.3342H16.3332H16.3322H16.3312H16.3303H16.3293H16.3283H16.3273H16.3264H16.3254H16.3244H16.3234H16.3225H16.3215H16.3205H16.3195H16.3186H16.3176H16.3166H16.3156H16.3146H16.3136H16.3127H16.3117H16.3107H16.3097H16.3087H16.3077H16.3067H16.3057H16.3048H16.3038H16.3028H16.3018H16.3008H16.2998H16.2988H16.2978H16.2968H16.2958H16.2948H16.2938H16.2928H16.2918H16.2908H16.2899H16.2889H16.2879H16.2869H16.2859H16.2849H16.2839H16.2829H16.2819H16.2809H16.2798H16.2788H16.2778H16.2768H16.2758H16.2748H16.2738H16.2728H16.2718H16.2708H16.2698H16.2688H16.2678H16.2668H16.2658H16.2648H16.2638H16.2627H16.2617H16.2607H16.2597H16.2587H16.2577H16.2567H16.2557H16.2547H16.2537H16.2526H16.2516H16.2506H16.2496H16.2486H16.2476H16.2466H16.2455H16.2445H16.2435H16.2425H16.2415H16.2405H16.2395H16.2384H16.2374H16.2364H16.2354H16.2344H16.2334H16.2323H16.2313H16.2303H16.2293H16.2283H16.2273H16.2262H16.2252H16.2242H16.2232H16.2222H16.2212H16.2201H16.2191H16.2181H16.2171H16.2161H16.2151H16.214H16.213H16.212H16.211H16.21H16.2089H16.2079H16.2069H16.2059H16.2049H16.2039H16.2028H16.2018H16.2008H16.1998H16.1988H16.1977H16.1967H16.1957H16.1947H16.1937H16.1927H16.1916H16.1906H16.1896H16.1886H16.1876H16.1866H16.1855H16.1845H16.1835H16.1825H16.1815H16.1805H16.1794H16.1784H16.1774H16.1764H16.1754H16.1744H16.1733H16.1723H16.1713H16.1703H16.1693H16.1683H16.1673H16.1662H16.1652H16.1642H16.1632H16.1622H16.1612H16.1602H16.1592H16.1582H16.1571H16.1561H16.1551H16.1541H16.1531H16.1521H16.1511H16.1501H16.1491H16.1481H16.1471H16.146H16.145H16.144H16.143H16.142H16.141H16.14H16.139H16.138H16.137H16.136H16.135H16.134H16.133H16.132H16.131H16.13H16.129H16.128H16.127H16.126H16.125H16.124H16.123H16.122H16.121H16.12H16.119H16.118H16.117H16.116H16.1151H16.1141H16.1131H16.1121H16.1111H16.1101H16.1091H16.1081H16.1071H16.1061H16.1052H16.1042H16.1032H16.1022H16.1012H16.1002H16.0993H16.0983H16.0973H16.0963H16.0953H16.0944H16.0934H16.0924H16.0914H16.0904H16.0895H16.0885H16.0875H16.0866H16.0856H16.0846H16.0836H16.0827H16.0817H16.0807H16.0798H16.0788H16.0778H16.0769H16.0759H16.0749H16.074H16.073H16.072H16.0711H16.0701H16.0692H16.0682H16.0673H16.0663H16.0653H16.0644H16.0634H16.0625H16.0615H16.0606H16.0596H16.0587H16.0577H16.0568H16.0558H16.0549H16.054H16.053H16.0521H16.0511H16.0502H16.0492H16.0483H16.0474H16.0464H16.0455H16.0446H16.0436H16.0427H16.0418H16.0408H16.0399H16.039H16.0381H16.0371H16.0362H16.0353H16.0344H16.0334H16.0325H16.0316H16.0307H16.0298H16.0288H16.0279H16.027H16.0261H16.0252H16.0243H16.0234H16.0225H16.0216H16.0207H16.0198H16.0189H16.0179H16.017H16.0161H16.0153H16.0144H16.0135H16.0126H16.0117H16.0108H16.0099H16.009H16.0081H16.0072H16.0063H16.0055H16.0046H16.0037H16.0028H16.0019H16.001H16.0002H15.9993H15.9984H15.9976H15.9967H15.9958H15.9949H15.9941H15.9932H15.9923H15.9915H15.9906H15.9898H15.9889H15.988H15.9872H15.9863H15.9855H15.9846H15.9838H15.9829H15.9821H15.9812H15.9804H15.9795H15.9787H15.9779H15.977H15.9762H15.9754H15.9745H15.9737H15.9729H15.972H15.9712H15.9704H15.9695H15.9687H15.9679H15.9671H15.9663H15.9654H15.9646C15.959 13.4087 15.9532 13.4086 15.9471 13.4086C15.7336 13.4082 15.2421 13.4073 14.89 13.8751C14.879 13.8897 14.8592 13.9131 14.8329 13.9443C14.7281 14.0684 14.5204 14.3144 14.3588 14.6058C14.1399 15.0006 13.9604 15.5297 13.9604 16.2389C13.9604 16.9695 14.2224 17.6541 14.4832 18.1553C14.7154 18.6016 14.9713 18.9485 15.1034 19.0964C15.3362 19.4489 16.9731 21.91 19.5211 22.9749C19.9307 23.1777 20.3329 23.3209 20.6329 23.4278C20.7504 23.4696 20.8522 23.5059 20.9327 23.5379ZM18.167 15.839C18.167 15.839 18.167 15.839 18.167 15.839L18.167 15.839Z" stroke="white" stroke-width="0.95"/>
</svg>
